<mxfile host="app.diagrams.net" modified="2023-10-04T12:20:38.754Z" agent="Mozilla/5.0 (Windows NT 10.0; Win64; x64; rv:109.0) Gecko/20100101 Firefox/118.0" etag="8vD9_ZcNUrGFQxAL4HFD" version="22.0.2" type="github">
  <diagram name="Страница — 1" id="F5uUHcuyqRIQEHuBv_ez">
    <mxGraphModel dx="1434" dy="754" grid="1" gridSize="10" guides="1" tooltips="1" connect="1" arrows="1" fold="1" page="1" pageScale="1" pageWidth="827" pageHeight="1169" math="0" shadow="0">
      <root>
        <mxCell id="0" />
        <mxCell id="1" parent="0" />
        <mxCell id="cGc74z8r3PibzhaFszwp-1" value="" style="whiteSpace=wrap;html=1;aspect=fixed;" vertex="1" parent="1">
          <mxGeometry x="330" y="50" width="200" height="200" as="geometry" />
        </mxCell>
        <mxCell id="cGc74z8r3PibzhaFszwp-2" value="&lt;h1 align=&quot;center&quot;&gt;Класс Main&lt;br&gt;&lt;/h1&gt;&lt;p align=&quot;center&quot;&gt;Точка входа в прогамму, содержит основную логику работы конвертора, работает с классами и методами.&lt;br&gt;&lt;/p&gt;" style="text;html=1;strokeColor=none;fillColor=none;spacing=5;spacingTop=-20;whiteSpace=wrap;overflow=hidden;rounded=0;" vertex="1" parent="1">
          <mxGeometry x="335" y="80" width="190" height="120" as="geometry" />
        </mxCell>
        <mxCell id="cGc74z8r3PibzhaFszwp-4" value="" style="shape=flexArrow;endArrow=classic;html=1;rounded=0;exitX=0.5;exitY=1;exitDx=0;exitDy=0;" edge="1" parent="1" source="cGc74z8r3PibzhaFszwp-1" target="cGc74z8r3PibzhaFszwp-5">
          <mxGeometry width="50" height="50" relative="1" as="geometry">
            <mxPoint x="390" y="410" as="sourcePoint" />
            <mxPoint x="430" y="300" as="targetPoint" />
          </mxGeometry>
        </mxCell>
        <mxCell id="cGc74z8r3PibzhaFszwp-5" value="" style="whiteSpace=wrap;html=1;aspect=fixed;" vertex="1" parent="1">
          <mxGeometry x="340" y="320" width="180" height="180" as="geometry" />
        </mxCell>
        <mxCell id="cGc74z8r3PibzhaFszwp-6" value="&lt;h1 align=&quot;center&quot;&gt;Welkome&lt;br&gt;&lt;/h1&gt;&lt;p align=&quot;center&quot;&gt;Метод тестового вывода привествия пользователя при входе в программу. Выводит информацию о программе и корневую папку для работы с файлами&lt;br&gt;&lt;/p&gt;" style="text;html=1;strokeColor=none;fillColor=none;spacing=5;spacingTop=-20;whiteSpace=wrap;overflow=hidden;rounded=0;" vertex="1" parent="1">
          <mxGeometry x="340" y="320" width="180" height="160" as="geometry" />
        </mxCell>
        <mxCell id="cGc74z8r3PibzhaFszwp-7" style="edgeStyle=orthogonalEdgeStyle;rounded=0;orthogonalLoop=1;jettySize=auto;html=1;" edge="1" parent="1" source="cGc74z8r3PibzhaFszwp-6" target="cGc74z8r3PibzhaFszwp-6">
          <mxGeometry relative="1" as="geometry" />
        </mxCell>
        <mxCell id="cGc74z8r3PibzhaFszwp-8" style="edgeStyle=orthogonalEdgeStyle;rounded=0;orthogonalLoop=1;jettySize=auto;html=1;exitX=0.5;exitY=1;exitDx=0;exitDy=0;" edge="1" parent="1" source="cGc74z8r3PibzhaFszwp-5" target="cGc74z8r3PibzhaFszwp-5">
          <mxGeometry relative="1" as="geometry" />
        </mxCell>
        <mxCell id="cGc74z8r3PibzhaFszwp-12" value="" style="group" vertex="1" connectable="0" parent="1">
          <mxGeometry x="335" y="510" width="225" height="140" as="geometry" />
        </mxCell>
        <mxCell id="cGc74z8r3PibzhaFszwp-13" value="" style="group" vertex="1" connectable="0" parent="cGc74z8r3PibzhaFszwp-12">
          <mxGeometry x="-17.5" y="30" width="225" height="140" as="geometry" />
        </mxCell>
        <mxCell id="cGc74z8r3PibzhaFszwp-9" value="" style="rounded=0;whiteSpace=wrap;html=1;" vertex="1" parent="cGc74z8r3PibzhaFszwp-13">
          <mxGeometry width="225" height="140" as="geometry" />
        </mxCell>
        <mxCell id="cGc74z8r3PibzhaFszwp-10" value="&lt;h1 align=&quot;center&quot;&gt;ChoiceFileExten&lt;br&gt;&lt;/h1&gt;&lt;p align=&quot;center&quot;&gt;Метод получает параметр расширения файла для отображения и выора файла для конвертации. &lt;br&gt;&lt;/p&gt;" style="text;html=1;strokeColor=none;fillColor=none;spacing=5;spacingTop=-20;whiteSpace=wrap;overflow=hidden;rounded=0;align=center;" vertex="1" parent="cGc74z8r3PibzhaFszwp-13">
          <mxGeometry x="11.25" y="10" width="202.5" height="120" as="geometry" />
        </mxCell>
      </root>
    </mxGraphModel>
  </diagram>
</mxfile>
